<svg xmlns="http://www.w3.org/2000/svg" width="375" viewBox="0 0 375 375" height="375" version="1.0"><path fill="#E6E6E6" d="M 187.5 0 C 83.945312 0 0 83.945312 0 187.5 C 0 291.054688 83.945312 375 187.5 375 C 291.054688 375 375 291.054688 375 187.5 C 375 83.945312 291.054688 0 187.5 0"/><g fill="#8A8C85"><g><g><path d="M 113.515625 -86.796875 L 112.9375 -86.796875 L 103.28125 -67.46875 L 77.5 -20.65625 L 52.296875 -67.265625 L 42.265625 -88.125 L 41.6875 -88.125 L 41.6875 0 L 14.59375 0 L 14.59375 -132.265625 L 45.09375 -132.265625 L 77.5 -70.296875 L 77.890625 -70.296875 L 109.90625 -132.265625 L 140.609375 -132.265625 L 140.609375 0 L 113.515625 0 Z M 113.515625 -86.796875" transform="translate(43.957 259.848)"/></g></g></g><g fill="#8A8C85"><g><g><path d="M 60.640625 -57.609375 L 43.390625 -36.765625 L 43.390625 0 L 14.59375 0 L 14.59375 -132.265625 L 43.390625 -132.265625 L 43.390625 -69.359375 L 44.53125 -69.359375 L 63.296875 -94.9375 L 93.046875 -132.265625 L 125.640625 -132.265625 L 81.109375 -77.890625 L 129.625 0 L 95.703125 0 Z M 60.640625 -57.609375" transform="translate(199.151 259.848)"/></g></g></g></svg>